<svg width="46" height="44" viewBox="0 0 46 44" fill="none" xmlns="http://www.w3.org/2000/svg">
<path d="M23.2234 2.76093C26.1445 2.78802 28.9381 3.96086 31.0031 6.02702C33.0681 8.09318 34.2394 10.8875 34.2648 13.8085C34.2648 15.2214 34.3098 16.5228 34.3903 17.7219C34.4026 17.9215 34.4583 18.1161 34.5536 18.2919C34.6489 18.4677 34.7814 18.6206 34.942 18.7398C35.1026 18.859 35.2872 18.9418 35.4831 18.9822C35.679 19.0226 35.8813 19.0197 36.0759 18.9737L37.9613 18.5322C38.2333 18.4684 38.5195 18.5152 38.757 18.6621C38.9946 18.8091 39.1642 19.0443 39.2286 19.3161C39.3006 19.6474 39.2493 19.9936 39.0845 20.2898C38.9197 20.5861 38.6526 20.8122 38.3331 20.9257L35.4702 22.0815C35.1209 22.2226 34.8355 22.487 34.6682 22.8245C34.5008 23.162 34.4632 23.5492 34.5623 23.9127C36.8583 32.4025 43.2737 31.5194 43.2737 32.6256C43.2737 34.0199 38.4385 34.2105 38.0063 34.6473C37.574 35.0842 37.9877 37.2051 37.0116 37.6141C36.7658 37.6961 36.5067 37.7313 36.2479 37.7179C35.512 37.7179 34.4724 37.5738 33.3771 37.5738C32.4125 37.5402 31.4519 37.7146 30.5606 38.0851C28.2461 39.1541 26.0136 41.1526 23.2467 41.1526C20.4797 41.1526 18.2473 39.1556 15.9327 38.0851C15.0414 37.7145 14.0809 37.5402 13.1162 37.5738C12.0209 37.5738 10.9814 37.7179 10.2455 37.7179C9.98664 37.7312 9.7276 37.696 9.4817 37.6141C8.50568 37.2036 8.92397 35.0842 8.48708 34.6473C8.0502 34.2105 3.21968 34.0137 3.21968 32.6256C3.21968 31.5194 9.63352 32.4025 11.931 23.9127C12.0302 23.5492 11.9925 23.162 11.8252 22.8245C11.6578 22.487 11.3725 22.2226 11.0232 22.0815L8.154 20.9257C7.83456 20.8122 7.56745 20.5861 7.40263 20.2898C7.23781 19.9936 7.18659 19.6474 7.25854 19.3161C7.32296 19.0443 7.49255 18.8091 7.73012 18.6621C7.96768 18.5152 8.25384 18.4684 8.52582 18.5322L10.4112 18.9737C10.6062 19.02 10.809 19.023 11.0052 18.9825C11.2015 18.9421 11.3865 18.8591 11.5473 18.7395C11.7081 18.6199 11.8407 18.4666 11.9359 18.2902C12.0311 18.1139 12.0866 17.9189 12.0984 17.7188C12.1789 16.5197 12.2223 15.2183 12.2238 13.8054C12.2404 10.8888 13.4031 8.09566 15.4609 6.02878C17.5188 3.9619 20.3069 2.78706 23.2234 2.75783M23.2234 0.364259C21.4319 0.363507 19.6593 0.729954 18.0149 1.44098C14.8104 2.82678 12.2596 5.38918 10.8884 8.60001C10.1848 10.2458 9.8217 12.0171 9.82098 13.807C9.82098 14.6901 9.80239 15.5452 9.76676 16.3663L9.06495 16.2021C8.62196 16.099 8.16295 16.0847 7.71437 16.1598C7.2658 16.2349 6.83653 16.3981 6.4513 16.6399C6.06607 16.8817 5.7325 17.1973 5.46982 17.5686C5.20713 17.9399 5.02052 18.3595 4.92074 18.8033C4.72324 19.6949 4.85488 20.6278 5.29139 21.4299C5.7279 22.232 6.4398 22.8492 7.29572 23.1675L9.39649 24.0149C9.06153 25.3869 8.35334 26.6394 7.35035 27.6336C6.34736 28.6278 5.08873 29.325 3.71388 29.6479C3.2921 29.7713 2.88036 29.9267 2.48224 30.1127C1.99181 30.3257 1.57363 30.6762 1.27832 31.1219C0.983016 31.5676 0.823247 32.0894 0.818359 32.624C0.823239 33.1137 0.943305 33.5953 1.16884 34.03C1.39438 34.4647 1.71906 34.8401 2.11662 35.1261C2.59616 35.4773 3.12924 35.7488 3.69529 35.9301C4.58762 36.2109 5.49881 36.4279 6.42195 36.5792C6.46158 36.9072 6.52737 37.2315 6.6187 37.5491C6.745 38.0506 6.9849 38.5164 7.31988 38.9105C7.65486 39.3046 8.07594 39.6164 8.5506 39.8218C9.08972 40.0298 9.66474 40.1288 10.2424 40.113C10.6622 40.113 11.1053 40.0805 11.5747 40.0449C12.0782 40.0077 12.5988 39.969 13.1131 39.969C13.7309 39.9376 14.3484 40.0363 14.9257 40.2587C15.5067 40.5267 16.1217 40.8892 16.774 41.2719C18.679 42.6131 20.9183 43.4003 23.2436 43.5462C25.5693 43.3989 27.8087 42.6101 29.7132 41.2672C30.3654 40.8846 30.982 40.522 31.563 40.254C32.1402 40.0316 32.7578 39.9329 33.3756 39.9643C33.8899 39.9643 34.4105 40.0031 34.914 40.0402C35.3787 40.0743 35.8265 40.1084 36.2463 40.1084C36.824 40.1242 37.399 40.0252 37.9381 39.8171C38.4119 39.612 38.8324 39.3008 39.167 38.9076C39.5017 38.5144 39.7417 38.0496 39.8684 37.5491C39.9602 37.2321 40.0265 36.9083 40.0667 36.5808C40.9899 36.4294 41.9011 36.2125 42.7934 35.9317C43.3595 35.7503 43.8925 35.4788 44.3721 35.1276C44.7696 34.8417 45.0943 34.4662 45.3199 34.0316C45.5454 33.5969 45.6655 33.1152 45.6703 32.6256C45.6656 32.0905 45.5058 31.5683 45.2101 31.1223C44.9145 30.6762 44.4959 30.3255 44.0049 30.1127C43.6068 29.9267 43.195 29.7713 42.7733 29.6479C41.3973 29.3248 40.1379 28.6268 39.1345 27.6314C38.1312 26.6359 37.4232 25.382 37.0891 24.0087L39.1899 23.1613C40.0442 22.8428 40.7548 22.2265 41.1909 21.4258C41.627 20.6251 41.7593 19.6938 41.5633 18.8033C41.3907 18.0253 40.9524 17.3318 40.3239 16.8419C39.9172 16.526 39.445 16.305 38.9419 16.1951C38.4387 16.0852 37.9174 16.0892 37.416 16.2068L36.7142 16.371C36.6786 15.5514 36.66 14.6947 36.66 13.8116C36.6595 12.0173 36.2932 10.2418 35.5832 8.59381C34.2008 5.38261 31.6413 2.82258 28.4304 1.43943C26.7863 0.73167 25.015 0.36687 23.225 0.367357" fill="white"/>
</svg>
