<svg width="67" height="67" viewBox="0 0 67 67" fill="none" xmlns="http://www.w3.org/2000/svg">
<path d="M57.1845 9.80834C44.1 -3.27222 22.8889 -3.26907 9.80834 9.81554C-3.27222 22.9001 -3.26907 44.1111 9.81554 57.1917C22.9001 70.2722 44.1111 70.2691 57.1917 57.1845C60.302 54.0732 62.769 50.3799 64.4519 46.3152C66.1348 42.2505 67.0007 37.8942 67 33.4949C66.9993 29.0956 66.1322 24.7396 64.448 20.6754C62.7639 16.6113 60.2957 12.9186 57.1845 9.80834ZM50.7346 46.6651L50.7301 46.6695V46.6584L49.0327 48.3445C47.9534 49.4375 46.6104 50.2337 45.1336 50.6562C43.6568 51.0787 42.0959 51.1133 40.6019 50.7565C37.5405 49.9371 34.6301 48.6327 31.9813 46.8929C29.5203 45.3202 27.2397 43.4815 25.1808 41.41C23.2864 39.5295 21.5843 37.4646 20.0999 35.2461C18.4762 32.859 17.191 30.2585 16.2809 27.5187C15.7693 25.9406 15.7073 24.2513 16.1018 22.6399C16.4963 21.0286 17.3316 19.5589 18.5143 18.3956L20.5019 16.408C21.0545 15.8529 21.9525 15.8509 22.5074 16.4035L22.5119 16.408L28.7875 22.6836C29.3426 23.2362 29.3446 24.1342 28.792 24.6891L28.7875 24.6936L25.1025 28.3786C24.0452 29.4244 23.9122 31.0863 24.7899 32.2869C26.1227 34.1161 27.5976 35.8373 29.2008 37.4348C30.9882 39.2299 32.9313 40.863 35.0074 42.3147C36.207 43.1514 37.8333 43.0103 38.871 41.9797L42.4331 38.3617C42.9857 37.8066 43.8837 37.8046 44.4387 38.3572L44.4431 38.3617L50.73 44.6597C51.2852 45.2122 51.2872 46.11 50.7346 46.6651Z" fill="#E50914"/>
</svg>
