<svg width="46" height="46" viewBox="0 0 46 46" fill="none" xmlns="http://www.w3.org/2000/svg">
<path d="M33.5046 0.818359H12.9503C6.26062 0.818359 0.818359 6.26062 0.818359 12.9503V33.505C0.818359 40.1943 6.26062 45.6365 12.9503 45.6365H33.505C40.1943 45.6365 45.6365 40.1943 45.6365 33.505V12.9503C45.6365 6.26062 40.1943 0.818359 33.5046 0.818359ZM43.0091 33.505C43.0091 38.7455 38.7455 43.0091 33.5046 43.0091H12.9503C7.70942 43.0091 3.44583 38.7455 3.44583 33.505V12.9503C3.44583 7.70942 7.70942 3.44583 12.9503 3.44583H33.505C38.7455 3.44583 43.0091 7.70942 43.0091 12.9503V33.505Z" fill="white"/>
<path d="M23.2273 10.9733C16.47 10.9733 10.9727 16.4705 10.9727 23.2279C10.9727 29.9853 16.4699 35.4826 23.2273 35.4826C29.9847 35.4826 35.4819 29.9853 35.4819 23.2279C35.4819 16.4705 29.9847 10.9733 23.2273 10.9733ZM23.2273 32.8551C17.9191 32.8551 13.6001 28.5365 13.6001 23.2279C13.6001 17.9198 17.9191 13.6008 23.2273 13.6008C28.5359 13.6008 32.8545 17.9198 32.8545 23.2279C32.8545 28.5365 28.5359 32.8551 23.2273 32.8551ZM35.775 6.62109C33.7781 6.62109 32.1539 8.24567 32.1539 10.2422C32.1539 12.2391 33.7781 13.8636 35.775 13.8636C37.772 13.8636 39.3964 12.2391 39.3964 10.2423C39.3964 8.24541 37.7719 6.62109 35.775 6.62109ZM35.775 11.2359C35.2272 11.2359 34.7813 10.79 34.7813 10.2422C34.7813 9.69412 35.2272 9.24856 35.775 9.24856C36.3231 9.24856 36.769 9.69412 36.769 10.2422C36.769 10.79 36.3231 11.2359 35.775 11.2359Z" fill="white"/>
</svg>
