<svg width="34" height="45" viewBox="0 0 34 45" fill="none" xmlns="http://www.w3.org/2000/svg">
<path d="M16.8743 0C7.57096 0 0 7.62345 0 16.9962C0 30.3138 15.2882 44.0645 15.9388 44.642C16.1959 44.8722 16.5288 44.9997 16.874 45C17.2191 45.0003 17.5523 44.8736 17.8099 44.6439C18.4605 44.0645 33.7487 30.3138 33.7487 16.9962C33.7487 7.62345 26.1777 0 16.8743 0ZM16.8743 26.249C11.7052 26.249 7.49971 22.0435 7.49971 16.8743C7.49971 11.7052 11.7052 7.49971 16.8743 7.49971C22.0435 7.49971 26.249 11.7052 26.249 16.8743C26.249 22.0435 22.0435 26.249 16.8743 26.249Z" fill="white"/>
</svg>
