<svg width="39" height="39" viewBox="0 0 39 39" fill="none" xmlns="http://www.w3.org/2000/svg">
<path d="M37.8975 28.622L32.455 23.1795C30.5112 21.2357 27.2068 22.0133 26.4293 24.5401C25.8461 26.2896 23.9024 27.2615 22.153 26.8726C18.2654 25.9008 13.0173 20.847 12.0454 16.765C11.4622 15.0156 12.6285 13.0718 14.3779 12.4887C16.9048 11.7112 17.6823 8.40681 15.7385 6.46304L10.296 1.02048C8.74096 -0.34016 6.40843 -0.34016 5.04779 1.02048L1.35463 4.71365C-2.33854 8.60119 1.74338 18.9032 10.8791 28.0389C20.0148 37.1746 30.3168 41.451 34.2044 37.5634L37.8975 33.8702C39.2582 32.3152 39.2582 29.9827 37.8975 28.622Z" fill="white"/>
</svg>
