<svg width="45" height="37" viewBox="0 0 45 37" fill="none" xmlns="http://www.w3.org/2000/svg">
<path d="M43.8044 4.69432C43.6608 4.59755 43.4906 4.54807 43.3176 4.55279C43.1445 4.55751 42.9772 4.6162 42.8392 4.72065C42.3412 5.04212 41.7898 5.27193 41.2109 5.39922C42.2093 4.50991 42.824 3.26823 42.9259 1.93513C42.9169 1.78673 42.8682 1.64349 42.7848 1.52041C42.7014 1.39734 42.5864 1.29897 42.4519 1.2356C42.3174 1.17224 42.1683 1.14621 42.0203 1.16026C41.8723 1.1743 41.7308 1.2279 41.6106 1.31543C40.1741 2.37008 38.4514 2.96428 36.6701 3.01959C34.9545 1.36825 32.6639 0.448789 30.2826 0.455604C27.7966 0.474441 25.4195 1.47874 23.6731 3.24813C21.9266 5.01752 20.9534 7.40747 20.9671 9.89356C20.967 10.3409 20.9986 10.7877 21.0616 11.2306C12.1627 11.1299 4.93399 2.6013 4.85498 2.51299C4.7694 2.41062 4.66038 2.33042 4.53716 2.27922C4.41395 2.22801 4.2802 2.20731 4.14727 2.21886C4.01434 2.23042 3.88617 2.2739 3.77365 2.34561C3.66112 2.41732 3.56757 2.51513 3.50095 2.63073C2.54889 4.26383 2.10848 6.14493 2.23663 8.03093C2.36477 9.91693 3.05559 11.7212 4.21979 13.2105C3.99937 13.0945 3.78715 12.9635 3.58461 12.8185C3.4622 12.7271 3.31692 12.6714 3.16481 12.6573C3.0127 12.6433 2.85967 12.6716 2.72263 12.7391C2.58558 12.8066 2.46985 12.9106 2.38821 13.0397C2.30658 13.1688 2.26221 13.318 2.26001 13.4707C2.16484 15.0258 2.47244 16.5792 3.15309 17.9807C3.83374 19.3821 4.86442 20.5843 6.1455 21.471C6.00943 21.4571 5.87203 21.477 5.74556 21.5291C5.61908 21.5812 5.50745 21.6637 5.42063 21.7694C5.33381 21.8751 5.27449 22.0006 5.24797 22.1348C5.22145 22.269 5.22855 22.4077 5.26863 22.5384C5.69983 24.093 6.54589 25.501 7.71614 26.6115C8.88639 27.7219 10.3367 28.4931 11.9118 28.8423C7.6653 32.1515 1.40638 31.0856 1.33666 31.0732C1.15374 31.0408 0.965233 31.0708 0.801398 31.1584C0.637564 31.2459 0.5079 31.386 0.433214 31.5561C0.358528 31.7262 0.343151 31.9165 0.389551 32.0963C0.435952 32.2762 0.541438 32.4353 0.689082 32.5481C4.69096 35.3976 9.51218 36.866 14.4231 36.731C16.1724 36.7442 17.9186 36.5838 19.6363 36.2523C39.279 31.5953 39.8306 13.6071 39.7856 10.6589C43.4728 7.23042 44.0507 5.92286 44.1375 5.60062C44.1841 5.43371 44.177 5.25637 44.1172 5.09371C44.0574 4.93105 43.948 4.79133 43.8044 4.69432ZM38.382 9.69681C38.2905 9.78079 38.2191 9.88426 38.173 9.99956C38.1269 10.1149 38.1072 10.2391 38.1156 10.363C38.1682 11.1593 39.1721 29.9221 19.266 34.6395C14.25 35.5587 9.0737 34.9566 4.40261 32.9106C6.2518 32.9402 8.08764 32.5928 9.79817 31.8896C11.5087 31.1864 13.0581 30.1422 14.3518 28.8206C14.4583 28.7012 14.5279 28.5535 14.5523 28.3954C14.5766 28.2373 14.5548 28.0755 14.4892 27.9296C14.4237 27.7837 14.3174 27.6598 14.183 27.573C14.0487 27.4861 13.8921 27.44 13.7321 27.4402H13.7306C12.3896 27.396 11.0861 26.9865 9.96076 26.2559C8.83539 25.5253 7.93082 24.5013 7.34461 23.2945C8.22191 23.3725 9.10531 23.2441 9.92409 22.9195C10.0827 22.8469 10.2143 22.726 10.3003 22.5742C10.3862 22.4223 10.422 22.2472 10.4026 22.0739C10.3832 21.9005 10.3096 21.7376 10.1922 21.6085C10.0749 21.4794 9.91978 21.3906 9.74902 21.3548C8.2506 20.9996 6.89675 20.1944 5.86931 19.0473C4.84186 17.9002 4.19003 16.4662 4.00135 14.9379C4.81263 15.3243 5.71533 15.4777 6.60872 15.381C6.76322 15.3555 6.90734 15.2867 7.02438 15.1827C7.14142 15.0786 7.2266 14.9436 7.27005 14.7931C7.31349 14.6427 7.31343 14.483 7.26987 14.3326C7.22631 14.1822 7.14104 14.0472 7.02392 13.9433C6.81632 13.762 2.26466 9.7185 4.42274 4.50221C6.76829 6.9624 13.7073 13.3468 22.1119 12.8634C22.2337 12.8564 22.3523 12.8226 22.4595 12.7644C22.5666 12.7062 22.6596 12.6251 22.7318 12.5268C22.804 12.4286 22.8536 12.3156 22.8772 12.196C22.9007 12.0764 22.8976 11.953 22.868 11.8348C22.7092 11.2004 22.6285 10.549 22.6278 9.89511C22.6134 7.84895 23.4112 5.88062 24.8463 4.42201C26.2814 2.96341 28.2365 2.13366 30.2826 2.11484C31.3014 2.11375 32.3099 2.31911 33.2472 2.71851C34.1844 3.11792 35.0311 3.70308 35.7359 4.43869C35.8887 4.59619 36.0975 4.68695 36.3169 4.69122C37.671 4.70519 39.0145 4.45196 40.2706 3.94604C39.6257 4.72172 38.8949 5.4218 38.0923 6.03286C37.9524 6.14283 37.8515 6.29493 37.8047 6.46667C37.7579 6.6384 37.7676 6.82064 37.8324 6.98642C37.8973 7.1522 38.0137 7.29271 38.1646 7.38715C38.3155 7.4816 38.4928 7.52496 38.6702 7.51083C39.4403 7.44409 40.2055 7.32975 40.9615 7.16845C40.3542 7.82223 39.5223 8.65572 38.3851 9.70145" fill="white"/>
</svg>
