<svg width="50" height="38" viewBox="0 0 50 38" fill="none" xmlns="http://www.w3.org/2000/svg">
<path d="M32.6127 16.9719L21.687 10.9939C21.0587 10.6502 20.3162 10.663 19.7005 11.0278C19.0843 11.393 18.7168 12.0383 18.7168 12.7544V24.6079C18.7168 25.3206 19.0821 25.9647 19.6941 26.3303C20.0136 26.5211 20.3679 26.6171 20.723 26.6171C21.0552 26.6166 21.3821 26.5334 21.6742 26.3752L32.6002 20.5002C32.9185 20.3291 33.1847 20.0752 33.3706 19.7654C33.5565 19.4556 33.6554 19.1013 33.6566 18.74C33.6581 18.3786 33.5619 18.0235 33.3781 17.7122C33.1943 17.401 32.9299 17.1452 32.6127 16.9719ZM21.6149 23.1167V14.2576L29.7807 18.7256L21.6149 23.1167Z" fill="white"/>
<path d="M49.3638 9.29568L49.3616 9.27308C49.3197 8.87504 48.9028 5.33443 47.1816 3.5335C45.192 1.41528 42.9363 1.15796 41.8516 1.03462C41.7697 1.02557 41.6878 1.01575 41.606 1.00516L41.5196 0.996176C34.9818 0.520759 25.108 0.455851 25.0092 0.455464L25.0005 0.455078L24.9918 0.455464C24.893 0.455851 15.0193 0.520759 8.42246 0.996176L8.33533 1.00516C8.26511 1.01462 8.18774 1.02332 8.10361 1.03317C7.03137 1.15681 4.79994 1.4146 2.80478 3.60933C1.16535 5.39103 0.69148 8.85581 0.642798 9.24517L0.637196 9.29568C0.622418 9.46134 0.273438 13.4046 0.273438 17.3633V21.0638C0.273438 25.0226 0.622418 28.9658 0.637196 29.1318L0.639804 29.1567C0.681724 29.5483 1.09822 33.0241 2.81154 34.8257C4.68229 36.8729 7.04759 37.1439 8.31988 37.2895C8.52098 37.3125 8.69417 37.3321 8.8122 37.3529L8.92656 37.3687C12.7015 37.728 24.5372 37.9048 25.039 37.9121L25.0541 37.9124L25.0692 37.9121C25.168 37.9117 35.0413 37.8468 41.5793 37.3714L41.6657 37.3624C41.7484 37.3514 41.8412 37.3416 41.943 37.331C43.0094 37.2178 45.2286 36.9828 47.1963 34.8177C48.8357 33.0358 49.3099 29.5709 49.3582 29.182L49.3638 29.1314C49.3786 28.9654 49.728 25.0225 49.728 21.0638V17.3633C49.7276 13.4045 49.3786 9.46172 49.3638 9.29568ZM46.8295 21.0638C46.8295 24.7279 46.5096 28.5013 46.4794 28.8477C46.3564 29.802 45.8564 31.994 45.0577 32.8622C43.8261 34.2171 42.5611 34.3515 41.6374 34.4492C41.5344 34.4598 41.4315 34.4713 41.3288 34.4839C35.0051 34.9411 25.5042 35.0113 25.0666 35.014C24.5757 35.0068 12.9131 34.8283 9.25333 34.4884C9.06575 34.4578 8.8631 34.4344 8.64964 34.4103C7.56638 34.2862 6.08353 34.1164 4.94338 32.8622L4.91653 32.8335C4.13173 32.0159 3.64617 29.966 3.52273 28.859C3.49974 28.5972 3.17153 24.7792 3.17153 21.0638V17.3633C3.17153 13.7035 3.49076 9.93415 3.52167 9.58063C3.66848 8.45661 4.1778 6.3973 4.94338 5.56489C6.21257 4.16887 7.55093 4.01423 8.43608 3.91194C8.52059 3.90209 8.59941 3.89311 8.67224 3.88364C15.088 3.42407 24.6571 3.35578 25.0005 3.35317C25.3439 3.35539 34.9097 3.42407 41.2684 3.88364C41.3465 3.89349 41.4318 3.90325 41.5234 3.91387C42.4339 4.01761 43.8099 4.17457 45.0728 5.52152L45.0844 5.53398C45.8693 6.35162 46.3549 8.43739 46.4782 9.56662C46.5001 9.8138 46.8295 13.64 46.8295 17.3633V21.0638Z" fill="white"/>
</svg>
